<svg height="800" viewBox="0 0 51.679 51.679" width="800" xmlns="http://www.w3.org/2000/svg"><path d="m40.47 8.458c-2.562-1.642-7.374-3.93-11.997-1.816-.445.204-.952-.117-.952-.607v-4.249c.001-.982-.666-1.786-1.481-1.786h-2.223c-.815 0-1.482.804-1.482 1.786v4.501c0 .425-.385.747-.802.661-1.877-.387-6.751-.989-11.412 1.795-.638.381-.268 1.381.464 1.247 2.17-.397 5.026-.67 6.956.092.506.199.579.891.124 1.189-1.371.895-3.9 2.953-5.557 6.737-.282.644.51 1.221 1.053.774 2.117-1.744 5.6-4.107 8.554-3.726.348.045.612.329.607.68-.03 1.982-.005 8.716 1.632 11.265.258.402.836.422 1.117.035 1.043-1.433 3.304-5.233 3.211-11.167-.006-.39.307-.707.697-.694 1.49.048 5.008.469 7.798 3.194.457.447 1.214.061 1.134-.573-.219-1.735-1.174-4.359-4.631-6.394-.525-.309-.436-1.095.155-1.24 1.194-.293 3.252-.572 6.644-.46.689.021.97-.873.391-1.244z" fill="#88c057"/><path d="m41.248 9.99c-.093-.065-.201-.106-.314-.12-.4-.049-.801-.095-1.201-.149-.143-.014-.287-.025-.429-.039-2.914-.048-4.743.206-5.846.474-.599.146-.707.931-.175 1.244 3.457 2.035 4.411 4.659 4.63 6.393.08.634-.677 1.02-1.134.573-2.79-2.724-6.308-3.145-7.798-3.194-.39-.013-.704.304-.697.694.092 5.934-2.168 9.734-3.211 11.167-.282.387-.859.367-1.117-.035-1.637-2.549-1.662-9.283-1.632-11.265.005-.35-.259-.635-.607-.68-2.954-.382-6.437 1.982-8.554 3.726-.543.447-1.335-.13-1.053-.774 1.655-3.779 4.18-5.836 5.552-6.733.457-.299.381-.994-.128-1.19-.371-.143-.776-.249-1.203-.324-.076-.014-.157-.015-.234-.004-2.425.33-4.807.791-7.119 1.411-.102.027-.197.076-.278.144-5.103 4.246-8.307 10.359-8.307 17.156 0 12.821 11.393 23.214 25.446 23.214s25.446-10.393 25.446-23.214c.001-7.537-3.937-14.235-10.037-18.475z" fill="#d13834"/><g fill="#ed7161"><path d="m5.791 34.636c-.342 0-.675-.175-.861-.49-.748-1.263-1.238-2.658-1.457-4.146-.08-.547.298-1.055.844-1.135.556-.086 1.055.298 1.135.844.178 1.213.593 2.395 1.199 3.418.281.475.125 1.089-.351 1.37-.16.094-.336.139-.509.139z"/><path d="m4.588 26.678c-.023 0-.047-.001-.07-.003-.552-.038-.967-.516-.929-1.066.094-1.327.366-2.616.811-3.834.189-.519.761-.783 1.283-.596.519.189.785.764.596 1.283-.381 1.041-.614 2.146-.694 3.285-.037.528-.476.931-.997.931z"/></g></svg>